<svg width="237" height="319" viewBox="0 0 237 319" fill="none" xmlns="http://www.w3.org/2000/svg">
<g clip-path="url(#clip0_46_1818)">
<path d="M30.3804 218.393C31.0975 263.383 7.6965 307.429 -34.3948 331.204C-76.486 354.979 -126.285 352.278 -164.451 328.44" stroke="url(#paint0_linear_46_1818)" stroke-opacity="0.4" stroke-width="3" stroke-miterlimit="10"/>
<path d="M-164.451 328.44C-156.665 336.663 -147.465 343.852 -137.05 349.72C-104.363 368.13 -61.2718 369.403 -24.5379 348.655C12.196 327.906 33.3513 290.344 34.459 252.845C34.8108 240.896 33.4029 229.306 30.3804 218.393" stroke="url(#paint1_linear_46_1818)" stroke-opacity="0.4" stroke-width="3" stroke-miterlimit="10"/>
<path d="M-164.451 328.44C-158.157 339.092 -149.736 348.943 -139.274 357.434C-106.203 384.294 -56.2992 389.613 -14.6811 366.106C26.937 342.598 48.1453 297.113 42.2139 254.923C40.3346 241.578 36.2509 229.277 30.3804 218.393" stroke="url(#paint2_linear_46_1818)" stroke-opacity="0.4" stroke-width="3" stroke-miterlimit="10"/>
<path d="M-164.451 328.44C-159.651 341.517 -152.008 354.042 -141.495 365.154C-108.067 400.492 -51.3154 409.83 -4.81837 383.567C41.6786 357.304 62.9879 303.881 49.9747 257.012C45.886 242.272 39.1047 229.259 30.3834 218.398" stroke="url(#paint3_linear_46_1818)" stroke-opacity="0.4" stroke-width="3" stroke-miterlimit="10"/>
<path d="M-164.451 328.44C-161.143 343.946 -154.314 359.167 -143.715 372.873C-110.037 416.771 -46.3345 430.042 5.04141 401.023C56.4173 372.004 77.9438 310.593 57.7326 259.095C51.4608 242.945 41.9557 229.236 30.3834 218.398" stroke="url(#paint4_linear_46_1818)" stroke-opacity="0.4" stroke-width="3" stroke-miterlimit="10"/>
<path d="M-164.451 328.44C-162.635 346.376 -156.589 364.261 -145.936 380.593C-111.92 432.959 -41.3566 450.248 14.8982 418.474C71.1531 386.699 92.7716 317.336 65.4875 261.173C57.0003 243.618 44.8036 229.207 30.3804 218.393" stroke="url(#paint5_linear_46_1818)" stroke-opacity="0.4" stroke-width="3" stroke-miterlimit="10"/>
<path d="M-164.451 328.44C-164.121 348.802 -158.865 369.355 -148.157 388.313C-113.797 449.144 -36.381 470.463 24.758 435.93C85.8971 401.396 107.605 324.089 73.2454 263.257C62.5406 244.305 47.6493 229.187 30.3834 218.398" stroke="url(#paint6_linear_46_1818)" stroke-opacity="0.4" stroke-width="3" stroke-miterlimit="10"/>
<path d="M12.3128 287.13C-32.7924 288.037 -76.8533 264.886 -100.508 223.007C-124.164 181.127 -121.244 131.44 -97.1819 93.2782" stroke="url(#paint7_linear_46_1818)" stroke-opacity="0.4" stroke-width="3" stroke-miterlimit="10"/>
<path d="M-97.1819 93.2782C-105.459 101.079 -112.707 110.286 -118.635 120.7C-137.234 153.382 -138.697 196.367 -118.053 232.916C-97.4083 269.465 -59.8395 290.404 -22.2472 291.347C-10.2682 291.646 1.3584 290.192 12.3128 287.13" stroke="url(#paint8_linear_46_1818)" stroke-opacity="0.4" stroke-width="3" stroke-miterlimit="10"/>
<path d="M-97.1819 93.2782C-107.889 99.6019 -117.802 108.044 -126.36 118.515C-153.433 151.616 -158.981 201.414 -135.592 242.823C-112.202 284.232 -66.6895 305.189 -24.3642 299.091C-10.9756 297.159 1.37472 293.033 12.3128 287.13" stroke="url(#paint9_linear_46_1818)" stroke-opacity="0.4" stroke-width="3" stroke-miterlimit="10"/>
<path d="M-97.1819 93.2782C-110.313 98.1215 -122.904 105.799 -134.09 116.333C-169.668 149.822 -179.267 206.469 -153.136 252.732C-127.004 298.996 -73.5347 320.019 -26.4865 306.838C-11.69 302.696 1.38578 295.876 12.3128 287.13" stroke="url(#paint10_linear_46_1818)" stroke-opacity="0.4" stroke-width="3" stroke-miterlimit="10"/>
<path d="M-97.1819 93.2782C-112.743 96.6441 -128.033 103.521 -141.82 114.152C-185.973 147.929 -199.553 211.524 -170.68 262.642C-141.807 313.76 -80.3283 334.965 -28.6087 314.584C-12.3895 308.259 1.39685 298.719 12.3128 287.13" stroke="url(#paint11_linear_46_1818)" stroke-opacity="0.4" stroke-width="3" stroke-miterlimit="10"/>
<path d="M-97.1819 93.2782C-115.172 95.1666 -133.13 101.274 -149.551 111.97C-202.201 146.124 -219.839 216.579 -188.224 272.551C-156.609 328.524 -87.1576 349.787 -30.731 322.331C-13.0934 313.79 1.40791 301.563 12.3128 287.13" stroke="url(#paint12_linear_46_1818)" stroke-opacity="0.4" stroke-width="3" stroke-miterlimit="10"/>
<path d="M-97.1819 93.2782C-117.596 93.6863 -138.228 99.0262 -157.276 109.785C-218.415 144.319 -240.123 221.626 -205.763 282.458C-171.403 343.29 -93.9841 364.614 -32.845 330.08C-13.7972 319.321 1.42425 304.403 12.3157 287.136" stroke="url(#paint13_linear_46_1818)" stroke-opacity="0.4" stroke-width="3" stroke-miterlimit="10"/>
<path d="M-59.2429 265.579C-58.9014 220.585 -34.4744 177.09 8.15361 154.303C50.7816 131.515 100.507 135.375 138.092 160.1" stroke="url(#paint14_linear_46_1818)" stroke-opacity="0.4" stroke-width="3" stroke-miterlimit="10"/>
<path d="M138.097 160.097C130.508 151.694 121.485 144.288 111.206 138.185C78.9626 119.013 35.9201 116.732 -1.29017 136.625C-38.5034 156.513 -60.5258 193.571 -62.5152 231.044C-63.1482 242.986 -62.0121 254.599 -59.2482 265.582" stroke="url(#paint15_linear_46_1818)" stroke-opacity="0.4" stroke-width="3" stroke-miterlimit="10"/>
<path d="M138.097 160.097C132.056 149.302 123.866 139.259 113.611 130.52C81.1837 102.896 31.4173 96.4093 -10.7316 118.94C-52.8806 141.471 -75.1528 186.46 -70.2172 228.777C-68.6546 242.164 -64.858 254.557 -59.2429 265.579" stroke="url(#paint16_linear_46_1818)" stroke-opacity="0.4" stroke-width="3" stroke-miterlimit="10"/>
<path d="M138.097 160.097C133.603 146.91 126.257 134.21 116.012 122.85C83.4297 86.7371 26.9168 76.078 -20.1813 101.252C-67.2795 126.427 -89.8313 179.343 -77.9221 226.505C-74.1774 241.336 -67.7046 254.502 -59.2406 265.571" stroke="url(#paint17_linear_46_1818)" stroke-opacity="0.4" stroke-width="3" stroke-miterlimit="10"/>
<path d="M138.097 160.097C135.156 144.515 128.684 129.14 118.416 115.185C85.7832 70.5108 22.4169 55.7601 -29.6251 83.5752C-81.6672 111.39 -104.62 172.289 -85.6234 224.252C-79.7333 240.549 -70.5499 254.474 -59.2376 265.576" stroke="url(#paint18_linear_46_1818)" stroke-opacity="0.4" stroke-width="3" stroke-miterlimit="10"/>
<path d="M138.097 160.097C136.704 142.123 131.081 124.102 120.816 107.524C88.0411 54.3729 17.9141 35.437 -39.0719 65.8928C-96.0578 96.3486 -119.292 165.196 -93.3306 221.988C-85.2554 239.735 -73.4041 254.43 -59.2376 265.576" stroke="url(#paint19_linear_46_1818)" stroke-opacity="0.4" stroke-width="3" stroke-miterlimit="10"/>
<path d="M138.097 160.097C138.251 139.731 133.475 119.058 123.22 99.859C90.2989 38.2351 13.4113 15.1139 -48.5157 48.2156C-110.443 81.3174 -133.956 158.106 -101.035 219.73C-90.7799 238.929 -76.2501 254.389 -59.24 265.584" stroke="url(#paint20_linear_46_1818)" stroke-opacity="0.4" stroke-width="3" stroke-miterlimit="10"/>
<path d="M-38.3058 199.036C6.79944 198.13 50.8603 221.28 74.5155 263.16C98.1707 305.04 95.2479 354.722 71.1888 392.889" stroke="url(#paint21_linear_46_1818)" stroke-opacity="0.4" stroke-width="3" stroke-miterlimit="10"/>
<path d="M71.1888 392.889C79.4663 385.088 86.714 375.881 92.6419 365.467C111.241 332.785 112.704 289.8 92.0596 253.251C71.4123 216.696 33.8464 195.763 -3.74579 194.82C-15.7248 194.52 -27.3514 195.975 -38.3058 199.036" stroke="url(#paint22_linear_46_1818)" stroke-opacity="0.4" stroke-width="3" stroke-miterlimit="10"/>
<path d="M71.1888 392.889C81.8958 386.565 91.8085 378.123 100.367 367.652C127.44 334.551 132.988 284.753 109.599 243.344C86.2093 201.935 40.6965 180.978 -1.62879 187.076C-15.0174 189.008 -27.3677 193.134 -38.3058 199.036" stroke="url(#paint23_linear_46_1818)" stroke-opacity="0.4" stroke-width="3" stroke-miterlimit="10"/>
<path d="M71.1888 392.889C84.32 388.045 96.9112 380.368 108.097 369.834C143.675 336.345 153.274 279.698 127.143 233.435C101.011 187.171 47.5416 166.147 0.493452 179.329C-14.3031 183.471 -27.3788 190.291 -38.3058 199.036" stroke="url(#paint24_linear_46_1818)" stroke-opacity="0.4" stroke-width="3" stroke-miterlimit="10"/>
<path d="M71.1888 392.889C86.7495 389.523 102.04 382.646 115.827 372.015C159.98 338.237 173.56 274.643 144.687 223.525C115.814 172.407 54.3352 151.201 2.6157 171.582C-13.6035 177.908 -27.3899 187.447 -38.3058 199.036" stroke="url(#paint25_linear_46_1818)" stroke-opacity="0.4" stroke-width="3" stroke-miterlimit="10"/>
<path d="M71.1888 392.889C89.179 391 107.137 384.893 123.558 374.197C176.207 340.042 193.846 269.588 162.231 213.615C130.616 157.643 61.1646 136.38 4.73795 163.836C-12.8996 172.377 -27.4009 184.604 -38.3058 199.036" stroke="url(#paint26_linear_46_1818)" stroke-opacity="0.4" stroke-width="3" stroke-miterlimit="10"/>
<path d="M71.1888 392.889C91.6003 392.475 112.235 387.141 131.283 376.382C192.422 341.848 214.13 264.541 179.77 203.709C145.41 142.877 67.994 121.558 6.85494 156.092C-12.1928 166.851 -27.4143 181.769 -38.3058 199.036" stroke="url(#paint27_linear_46_1818)" stroke-opacity="0.4" stroke-width="3" stroke-miterlimit="10"/>
</g>
<defs>
<linearGradient id="paint0_linear_46_1818" x1="-148.13" y1="357.334" x2="46.7006" y2="247.286" gradientUnits="userSpaceOnUse">
<stop stop-color="#E8E6EE"/>
<stop offset="1" stop-color="#120052"/>
</linearGradient>
<linearGradient id="paint1_linear_46_1818" x1="-143.202" y1="366.059" x2="51.629" y2="256.012" gradientUnits="userSpaceOnUse">
<stop stop-color="#E8E6EE"/>
<stop offset="1" stop-color="#120052"/>
</linearGradient>
<linearGradient id="paint2_linear_46_1818" x1="-138.274" y1="374.785" x2="56.5574" y2="264.737" gradientUnits="userSpaceOnUse">
<stop stop-color="#E8E6EE"/>
<stop offset="1" stop-color="#120052"/>
</linearGradient>
<linearGradient id="paint3_linear_46_1818" x1="-134.522" y1="384.182" x2="62.669" y2="272.801" gradientUnits="userSpaceOnUse">
<stop stop-color="#E8E6EE"/>
<stop offset="1" stop-color="#120052"/>
</linearGradient>
<linearGradient id="paint4_linear_46_1818" x1="-132.745" y1="394.691" x2="70.7489" y2="279.75" gradientUnits="userSpaceOnUse">
<stop stop-color="#E8E6EE"/>
<stop offset="1" stop-color="#120052"/>
</linearGradient>
<linearGradient id="paint5_linear_46_1818" x1="-131.994" y1="405.776" x2="79.857" y2="286.115" gradientUnits="userSpaceOnUse">
<stop stop-color="#E8E6EE"/>
<stop offset="1" stop-color="#120052"/>
</linearGradient>
<linearGradient id="paint6_linear_46_1818" x1="-131.84" y1="417.201" x2="89.5626" y2="292.145" gradientUnits="userSpaceOnUse">
<stop stop-color="#E8E6EE"/>
<stop offset="1" stop-color="#120052"/>
</linearGradient>
<linearGradient id="paint7_linear_46_1818" x1="-100.508" y1="223.007" x2="-42.4345" y2="190.204" gradientUnits="userSpaceOnUse">
<stop stop-color="#E8E6EE"/>
<stop offset="1" stop-color="#120052"/>
</linearGradient>
<linearGradient id="paint8_linear_46_1818" x1="-118.053" y1="232.916" x2="-42.4345" y2="190.204" gradientUnits="userSpaceOnUse">
<stop stop-color="#E8E6EE"/>
<stop offset="1" stop-color="#120052"/>
</linearGradient>
<linearGradient id="paint9_linear_46_1818" x1="-135.592" y1="242.823" x2="-42.4345" y2="190.204" gradientUnits="userSpaceOnUse">
<stop stop-color="#E8E6EE"/>
<stop offset="1" stop-color="#120052"/>
</linearGradient>
<linearGradient id="paint10_linear_46_1818" x1="-153.136" y1="252.732" x2="-42.4345" y2="190.204" gradientUnits="userSpaceOnUse">
<stop stop-color="#E8E6EE"/>
<stop offset="1" stop-color="#120052"/>
</linearGradient>
<linearGradient id="paint11_linear_46_1818" x1="-170.681" y1="262.641" x2="-42.4352" y2="190.203" gradientUnits="userSpaceOnUse">
<stop stop-color="#E8E6EE"/>
<stop offset="1" stop-color="#120052"/>
</linearGradient>
<linearGradient id="paint12_linear_46_1818" x1="-188.224" y1="272.551" x2="-42.4346" y2="190.204" gradientUnits="userSpaceOnUse">
<stop stop-color="#E8E6EE"/>
<stop offset="1" stop-color="#120052"/>
</linearGradient>
<linearGradient id="paint13_linear_46_1818" x1="-205.761" y1="282.461" x2="-42.4331" y2="190.207" gradientUnits="userSpaceOnUse">
<stop stop-color="#E8E6EE"/>
<stop offset="1" stop-color="#120052"/>
</linearGradient>
<linearGradient id="paint14_linear_46_1818" x1="-73.6453" y1="240.081" x2="121.128" y2="130.066" gradientUnits="userSpaceOnUse">
<stop stop-color="#E8E6EE"/>
<stop offset="1" stop-color="#120052"/>
</linearGradient>
<linearGradient id="paint15_linear_46_1818" x1="-78.5768" y1="231.362" x2="116.207" y2="121.341" gradientUnits="userSpaceOnUse">
<stop stop-color="#E8E6EE"/>
<stop offset="1" stop-color="#120052"/>
</linearGradient>
<linearGradient id="paint16_linear_46_1818" x1="-83.4998" y1="222.634" x2="111.279" y2="112.616" gradientUnits="userSpaceOnUse">
<stop stop-color="#E8E6EE"/>
<stop offset="1" stop-color="#120052"/>
</linearGradient>
<linearGradient id="paint17_linear_46_1818" x1="-89.2855" y1="214.389" x2="107.896" y2="103.014" gradientUnits="userSpaceOnUse">
<stop stop-color="#E8E6EE"/>
<stop offset="1" stop-color="#120052"/>
</linearGradient>
<linearGradient id="paint18_linear_46_1818" x1="-97.0417" y1="207.264" x2="106.45" y2="92.3248" gradientUnits="userSpaceOnUse">
<stop stop-color="#E8E6EE"/>
<stop offset="1" stop-color="#120052"/>
</linearGradient>
<linearGradient id="paint19_linear_46_1818" x1="-105.86" y1="200.735" x2="105.989" y2="81.0752" gradientUnits="userSpaceOnUse">
<stop stop-color="#E8E6EE"/>
<stop offset="1" stop-color="#120052"/>
</linearGradient>
<linearGradient id="paint20_linear_46_1818" x1="-115.294" y1="194.557" x2="106.112" y2="69.4992" gradientUnits="userSpaceOnUse">
<stop stop-color="#E8E6EE"/>
<stop offset="1" stop-color="#120052"/>
</linearGradient>
<linearGradient id="paint21_linear_46_1818" x1="16.4415" y1="295.962" x2="74.5155" y2="263.16" gradientUnits="userSpaceOnUse">
<stop stop-color="#E8E6EE"/>
<stop offset="1" stop-color="#120052"/>
</linearGradient>
<linearGradient id="paint22_linear_46_1818" x1="16.4415" y1="295.962" x2="92.0596" y2="253.251" gradientUnits="userSpaceOnUse">
<stop stop-color="#E8E6EE"/>
<stop offset="1" stop-color="#120052"/>
</linearGradient>
<linearGradient id="paint23_linear_46_1818" x1="16.4415" y1="295.962" x2="109.599" y2="243.344" gradientUnits="userSpaceOnUse">
<stop stop-color="#E8E6EE"/>
<stop offset="1" stop-color="#120052"/>
</linearGradient>
<linearGradient id="paint24_linear_46_1818" x1="16.4415" y1="295.962" x2="127.143" y2="233.435" gradientUnits="userSpaceOnUse">
<stop stop-color="#E8E6EE"/>
<stop offset="1" stop-color="#120052"/>
</linearGradient>
<linearGradient id="paint25_linear_46_1818" x1="16.4422" y1="295.964" x2="144.688" y2="223.526" gradientUnits="userSpaceOnUse">
<stop stop-color="#E8E6EE"/>
<stop offset="1" stop-color="#120052"/>
</linearGradient>
<linearGradient id="paint26_linear_46_1818" x1="16.4415" y1="295.962" x2="162.231" y2="213.615" gradientUnits="userSpaceOnUse">
<stop stop-color="#E8E6EE"/>
<stop offset="1" stop-color="#120052"/>
</linearGradient>
<linearGradient id="paint27_linear_46_1818" x1="16.4415" y1="295.962" x2="179.77" y2="203.709" gradientUnits="userSpaceOnUse">
<stop stop-color="#E8E6EE"/>
<stop offset="1" stop-color="#120052"/>
</linearGradient>
<clipPath id="clip0_46_1818">
<rect width="376" height="380" fill="white" transform="translate(-94.5324 515.013) rotate(-119.459)"/>
</clipPath>
</defs>
</svg>
