<svg width="301" height="300" viewBox="0 0 301 300" fill="none" xmlns="http://www.w3.org/2000/svg">
<path d="M75.638 233.544C116.984 253.248 184.016 253.254 225.362 233.544C266.708 213.834 266.702 181.89 225.362 162.186C184.022 142.482 116.984 142.482 75.638 162.186C34.292 181.89 34.298 213.84 75.638 233.544Z" fill="#F5F5F5"/>
<path d="M225.218 218.982C232.833 218.982 239.006 216.041 239.006 212.412C239.006 208.784 232.833 205.842 225.218 205.842C217.603 205.842 211.43 208.784 211.43 212.412C211.43 216.041 217.603 218.982 225.218 218.982Z" fill="#EBEBEB"/>
<path d="M72.5 213.354L77.378 210.54C80.1015 208.317 82.1745 205.401 83.378 202.098C84.884 197.946 84.674 194.79 83.594 193.206C82.268 191.256 78.83 191.598 78.692 195.702C78.404 203.79 76.046 209.4 72.5 213.354Z" fill="#4ADEDD"/>
<path opacity="0.2" d="M72.5 213.354L77.378 210.54C80.1015 208.317 82.1745 205.401 83.378 202.098C84.884 197.946 84.674 194.79 83.594 193.206C82.268 191.256 78.83 191.598 78.692 195.702C78.404 203.79 76.046 209.4 72.5 213.354Z" fill="black"/>
<path d="M72.5 213.654C72.4365 213.653 72.3748 213.632 72.324 213.594C72.2731 213.556 72.2356 213.503 72.2169 213.442C72.1983 213.382 72.1993 213.316 72.22 213.256C72.2407 213.196 72.2799 213.144 72.332 213.108C83.612 205.308 81.428 194.43 81.404 194.322C81.3957 194.283 81.3953 194.242 81.4027 194.202C81.4102 194.163 81.4253 194.125 81.4473 194.091C81.4693 194.058 81.4978 194.029 81.531 194.006C81.5642 193.983 81.6016 193.967 81.641 193.959C81.6804 193.951 81.721 193.95 81.7606 193.958C81.8002 193.965 81.8379 193.98 81.8716 194.002C81.9053 194.024 81.9343 194.053 81.9571 194.086C81.9798 194.119 81.9957 194.157 82.004 194.196C82.004 194.31 84.308 205.56 72.692 213.6C72.6356 213.639 72.5682 213.657 72.5 213.654Z" fill="white"/>
<path d="M62.726 219C62.726 219 61.028 217.62 61.436 215.748C61.844 213.876 62.942 212.532 61.064 210.12C59.186 207.708 58.664 204.492 60.908 202.752C62.618 201.402 65.288 203.31 66.248 199.752C66.956 197.148 66.716 191.382 70.034 189.462C73.352 187.542 75.434 190.434 74.912 194.346C74.456 197.844 73.808 201.21 74.312 202.146C75.284 203.946 76.946 203.7 76.868 206.988C76.802 210.048 73.904 212.58 73.904 212.58L62.726 219Z" fill="#4ADEDD"/>
<path d="M68.3 216.066C68.2266 216.065 68.156 216.038 68.1009 215.99C68.0459 215.941 68.0101 215.875 68 215.802C67.142 208.692 69.2 196.416 70.88 192.768C70.8941 192.728 70.9168 192.691 70.9464 192.66C70.9761 192.629 71.012 192.604 71.0518 192.588C71.0916 192.573 71.1343 192.565 71.1771 192.567C71.22 192.569 71.2618 192.58 71.3 192.6C71.3358 192.616 71.368 192.639 71.3948 192.668C71.4215 192.697 71.4422 192.731 71.4556 192.768C71.469 192.805 71.4749 192.844 71.4729 192.883C71.4709 192.922 71.4611 192.961 71.444 192.996C69.782 196.596 67.796 208.908 68.618 215.706C68.6264 215.785 68.6034 215.864 68.554 215.925C68.5045 215.987 68.4326 216.027 68.354 216.036L68.3 216.066Z" fill="white"/>
<path d="M68.138 210.528C68.0921 210.53 68.0464 210.52 68.006 210.498C65.924 209.484 64.604 205.866 64.55 205.698C64.5353 205.661 64.5282 205.621 64.5292 205.581C64.5302 205.541 64.5392 205.501 64.5557 205.465C64.5722 205.428 64.5959 205.395 64.6253 205.368C64.6548 205.341 64.6894 205.32 64.7271 205.306C64.7648 205.292 64.8049 205.286 64.8449 205.288C64.885 205.291 64.9242 205.301 64.9603 205.318C64.9963 205.336 65.0285 205.36 65.0549 205.391C65.0813 205.421 65.1014 205.456 65.114 205.494C65.114 205.53 66.404 209.034 68.27 209.94C68.3312 209.97 68.3805 210.019 68.4099 210.081C68.4392 210.142 68.4468 210.211 68.4315 210.278C68.4162 210.344 68.3788 210.403 68.3254 210.445C68.2721 210.487 68.206 210.51 68.138 210.51V210.528Z" fill="white"/>
<path d="M68.102 212.928C68.0419 212.928 67.9832 212.91 67.9338 212.875C67.8845 212.841 67.8468 212.792 67.826 212.736C67.7961 212.663 67.7964 212.581 67.8267 212.508C67.8571 212.435 67.915 212.377 67.988 212.346C71.492 210.942 73.676 206.772 73.7 206.724C73.7366 206.653 73.7998 206.6 73.8758 206.576C73.9517 206.551 74.0342 206.558 74.105 206.595C74.1758 206.632 74.2292 206.695 74.2533 206.771C74.2775 206.847 74.2706 206.929 74.234 207C74.138 207.18 71.924 211.416 68.234 212.904C68.1929 212.924 68.1473 212.932 68.102 212.928Z" fill="white"/>
<path d="M190.58 180.648C190.58 180.648 187.958 176.4 187.7 171.786C187.442 167.172 188.456 165.252 189.848 164.7C191.24 164.148 191.348 165.846 192.062 166.848C192.776 167.85 194.234 167.28 194.774 164.154C195.314 161.028 197.282 155.754 201.374 154.728C205.874 153.612 203.462 158.892 202.328 160.95C201.194 163.008 200.318 165.816 201.062 166.578C201.806 167.34 202.964 165.93 204.062 167.238C205.4 168.816 201.242 174.498 198.854 175.872L190.58 180.648Z" fill="#4ADEDD"/>
<path d="M194.174 178.866C194.135 178.864 194.096 178.855 194.06 178.839C194.024 178.822 193.992 178.799 193.965 178.77C193.939 178.741 193.918 178.707 193.904 178.67C193.891 178.633 193.884 178.593 193.886 178.554C194.292 171.132 196.607 163.94 200.606 157.674C200.629 157.641 200.658 157.614 200.691 157.593C200.725 157.571 200.763 157.557 200.802 157.551C200.841 157.545 200.881 157.547 200.92 157.557C200.958 157.566 200.994 157.584 201.026 157.608C201.089 157.655 201.131 157.724 201.143 157.802C201.156 157.879 201.137 157.958 201.092 158.022C197.164 164.196 194.892 171.277 194.492 178.584C194.49 178.623 194.48 178.662 194.462 178.698C194.445 178.733 194.421 178.765 194.392 178.791C194.362 178.817 194.328 178.837 194.29 178.85C194.253 178.863 194.213 178.868 194.174 178.866Z" fill="white"/>
<path d="M194.516 175.32C194.466 175.32 194.416 175.307 194.372 175.284C192.692 174.354 191.762 171.594 191.726 171.48C191.713 171.443 191.707 171.403 191.709 171.363C191.711 171.324 191.722 171.285 191.739 171.249C191.756 171.213 191.78 171.181 191.81 171.155C191.84 171.129 191.874 171.109 191.912 171.096C191.988 171.071 192.07 171.078 192.141 171.114C192.212 171.15 192.265 171.212 192.29 171.288C192.29 171.288 193.19 173.946 194.69 174.756C194.758 174.796 194.808 174.861 194.829 174.937C194.85 175.013 194.841 175.094 194.804 175.164C194.777 175.216 194.735 175.258 194.684 175.286C194.632 175.314 194.574 175.325 194.516 175.32Z" fill="white"/>
<path d="M194.81 173.502C194.743 173.501 194.679 173.479 194.627 173.437C194.575 173.396 194.538 173.339 194.522 173.274C194.512 173.236 194.51 173.197 194.515 173.158C194.521 173.119 194.534 173.082 194.554 173.049C194.574 173.015 194.601 172.986 194.633 172.963C194.664 172.94 194.7 172.923 194.738 172.914C199.07 171.816 200.57 169.548 200.582 169.524C200.603 169.491 200.631 169.462 200.663 169.439C200.696 169.416 200.732 169.4 200.771 169.391C200.81 169.383 200.85 169.382 200.889 169.388C200.928 169.395 200.965 169.41 200.999 169.431C201.032 169.452 201.061 169.48 201.084 169.512C201.107 169.545 201.123 169.582 201.132 169.62C201.14 169.659 201.141 169.699 201.135 169.738C201.128 169.777 201.113 169.815 201.092 169.848C201.026 169.95 199.466 172.332 194.888 173.496L194.81 173.502Z" fill="white"/>
<path d="M125.3 171.324C125.3 171.324 119.546 169.92 119.246 159.144C118.928 147.516 120.656 133.944 113.846 132.846C107.036 131.748 103.256 140.046 103.34 149.736C103.418 158.22 106.838 176.64 125.276 180.252L125.3 171.324Z" fill="#4ADEDD"/>
<path opacity="0.2" d="M125.3 171.324C125.3 171.324 119.546 169.92 119.246 159.144C118.928 147.516 120.656 133.944 113.846 132.846C107.036 131.748 103.256 140.046 103.34 149.736C103.418 158.22 106.838 176.64 125.276 180.252L125.3 171.324Z" fill="black"/>
<path d="M125.3 179.148H125.246C121.1 178.392 117.722 176.106 115.208 172.362C107.756 161.244 110.102 140.484 110.876 136.86C110.893 136.783 110.94 136.715 111.006 136.672C111.072 136.628 111.152 136.612 111.23 136.626C111.308 136.645 111.375 136.692 111.419 136.759C111.462 136.826 111.478 136.907 111.464 136.986C110.702 140.586 108.368 161.082 115.706 172.026C116.774 173.723 118.183 175.18 119.844 176.304C121.505 177.427 123.381 178.194 125.354 178.554C125.393 178.561 125.43 178.576 125.464 178.598C125.497 178.62 125.526 178.648 125.548 178.681C125.57 178.714 125.586 178.751 125.594 178.79C125.602 178.829 125.602 178.869 125.594 178.908C125.581 178.976 125.545 179.038 125.491 179.082C125.437 179.126 125.369 179.149 125.3 179.148Z" fill="white"/>
<path d="M125.3 206.802C119.354 207.606 109.7 207.594 104.126 203.202C98.552 198.81 99.7159 195.03 101.858 193.452C104 191.874 105.86 190.074 102.176 186.57C98.492 183.066 92.5759 177.438 90.6559 168.996C88.7359 160.554 89.684 155.274 93.452 153.516C97.106 151.812 98.072 154.524 100.31 160.116C102.548 165.708 107.582 160.914 111.89 162.66C116.198 164.406 116.024 167.862 116.294 170.832C116.564 173.802 117.986 174.624 120.428 174.624C122.87 174.624 125.3 176.028 125.3 178.824V206.802Z" fill="#4ADEDD"/>
<path d="M125.3 196.998C125.274 197.004 125.248 197.004 125.222 196.998C124.964 196.926 118.814 195.138 109.856 186.912C100.316 178.152 95.816 165.012 95.768 164.88C95.745 164.804 95.7522 164.723 95.7879 164.652C95.8237 164.582 95.8854 164.528 95.96 164.502C96.0348 164.477 96.1164 164.483 96.1871 164.518C96.2579 164.552 96.3121 164.614 96.338 164.688C96.38 164.82 100.838 177.816 110.264 186.468C119.096 194.586 125.318 196.404 125.384 196.422C125.422 196.433 125.457 196.451 125.488 196.476C125.519 196.501 125.544 196.531 125.563 196.566C125.582 196.6 125.594 196.638 125.598 196.677C125.603 196.717 125.599 196.756 125.588 196.794C125.569 196.855 125.53 196.907 125.478 196.944C125.426 196.981 125.364 197 125.3 196.998Z" fill="white"/>
<path d="M112.358 189C112.298 189.001 112.239 188.983 112.189 188.948C112.14 188.914 112.102 188.865 112.082 188.808C110.156 183.864 109.718 173.286 109.682 172.836C109.68 172.757 109.709 172.68 109.763 172.622C109.817 172.564 109.891 172.529 109.97 172.524C110.048 172.525 110.123 172.555 110.181 172.608C110.239 172.661 110.275 172.734 110.282 172.812C110.282 172.92 110.732 183.738 112.622 188.592C112.636 188.629 112.643 188.669 112.642 188.708C112.641 188.748 112.633 188.787 112.616 188.823C112.6 188.86 112.577 188.892 112.548 188.92C112.519 188.947 112.485 188.968 112.448 188.982C112.419 188.992 112.389 188.998 112.358 189Z" fill="white"/>
<path d="M112.31 196.11C111.757 196.114 111.204 196.086 110.654 196.026C110.615 196.021 110.576 196.009 110.542 195.989C110.507 195.97 110.477 195.944 110.452 195.913C110.428 195.881 110.41 195.846 110.399 195.808C110.388 195.769 110.385 195.729 110.39 195.69C110.395 195.651 110.407 195.613 110.427 195.578C110.446 195.543 110.472 195.513 110.503 195.488C110.534 195.464 110.57 195.446 110.608 195.435C110.647 195.424 110.687 195.421 110.726 195.426C110.78 195.426 116.366 196.062 118.928 193.452C118.955 193.42 118.988 193.395 119.025 193.376C119.062 193.358 119.102 193.348 119.143 193.346C119.185 193.344 119.226 193.351 119.265 193.366C119.303 193.38 119.338 193.403 119.368 193.432C119.397 193.461 119.42 193.496 119.436 193.534C119.451 193.573 119.458 193.614 119.457 193.655C119.456 193.696 119.446 193.737 119.428 193.774C119.41 193.812 119.385 193.845 119.354 193.872C117.5 195.786 114.266 196.11 112.31 196.11Z" fill="white"/>
<path d="M107.99 82.494L107.342 78.7559L104.006 80.9519C103.701 80.352 103.269 79.8258 102.74 79.41L104.336 75.09L101.336 74.424L99.14 78.6239C98.3455 78.758 97.5752 79.0087 96.854 79.3679L95.9 76.1999L92.336 79.0019L92.57 82.7219C91.8442 83.5349 91.1861 84.4058 90.602 85.326L87.662 85.176L85.598 89.8019L88.124 90.882C87.8603 91.8388 87.6935 92.8197 87.626 93.81L84.416 96.762L85.058 100.506L88.4 98.31C88.7031 98.9094 89.1355 99.434 89.666 99.846L88.1 104.172L91.1 104.832L94.244 101.772C94.97 101.658 94.79 100.29 95.582 99.9L96.536 103.056L100.094 100.26L100.004 98.796C100.724 97.992 103.448 96.222 104.036 95.298L104.774 94.098L106.838 89.4719L105.878 87.732L104.81 85.464L107.99 82.494ZM97.1 94.7999C94.364 96.948 93.5 97.422 93.038 94.548C92.576 91.674 94.142 87.3059 96.878 85.1519C99.614 82.9979 100.658 82.8479 101.15 85.716C101.642 88.584 99.842 92.676 97.1 94.7999Z" fill="#E0E0E0"/>
<path d="M101.36 74.424L105.254 76.6679L103.058 80.8559L99.164 78.612L101.36 74.424Z" fill="#F5F5F5"/>
<path d="M111.236 81L107.9 83.196L104.006 80.952L107.342 78.756L111.236 81Z" fill="#F5F5F5"/>
<path d="M110.702 91.698L108.176 90.624L104.282 88.38L106.808 89.454L110.702 91.698Z" fill="#E0E0E0"/>
<path d="M88.094 104.172L91.988 106.41L93.584 102.09L89.69 99.846L88.094 104.172Z" fill="#E0E0E0"/>
<path d="M100.394 105.3L96.506 103.056L95.552 99.9L99.446 102.144L100.394 105.3Z" fill="#E0E0E0"/>
<path d="M111.878 84.738L111.236 81L107.9 83.196C107.593 82.5957 107.159 82.0695 106.628 81.654L108.224 77.334L105.254 76.668L103.052 80.868C102.257 81.002 101.487 81.2527 100.766 81.612L99.818 78.456L96.254 81.258L96.488 84.978C95.7614 85.7967 95.1032 86.6736 94.52 87.6L91.574 87.45L89.51 92.076L92.036 93.156C91.7747 94.1154 91.6079 95.0981 91.538 96.09L88.334 99L88.976 102.744L92.312 100.548C92.6191 101.146 93.0532 101.671 93.584 102.084L91.988 106.404L94.988 107.07L97.184 102.87C97.9815 102.737 98.7544 102.485 99.476 102.12L100.424 105.276L103.988 102.48L103.754 98.76C104.48 97.947 105.138 97.0761 105.722 96.156L108.668 96.3L110.732 91.674L108.17 90.6C108.436 89.6413 108.604 88.6584 108.674 87.666L111.878 84.738ZM101 97.068C98.27 99.216 95.654 98.634 95.156 95.766C94.658 92.898 96.476 88.824 99.212 86.676C101.948 84.528 104.558 85.116 105.056 87.984C105.554 90.852 103.736 94.92 101 97.068Z" fill="#EBEBEB"/>
<path d="M99.818 78.444L95.924 76.2L92.36 79.002L96.254 81.246L99.818 78.444Z" fill="#F5F5F5"/>
<path d="M92.36 79.002L92.594 82.722L96.488 84.966L96.254 81.246L92.36 79.002Z" fill="#E0E0E0"/>
<path d="M94.52 87.57L90.626 85.326L87.686 85.182L91.574 87.426L94.52 87.57Z" fill="#F5F5F5"/>
<path d="M87.686 85.182L85.622 89.802L89.51 92.046L91.574 87.426L87.686 85.182Z" fill="#E0E0E0"/>
<path d="M91.538 96.054L87.65 93.81L84.44 96.762L88.328 99.006L91.538 96.054Z" fill="#F5F5F5"/>
<path d="M88.976 102.75L85.082 100.506L84.44 96.762L88.328 99.006L88.976 102.75Z" fill="#E0E0E0"/>
<path d="M105.254 76.6679L101.36 74.424L104.336 75.09L108.224 77.3339L105.254 76.6679Z" fill="#F5F5F5"/>
<path d="M90.554 65.526V59.94L86.108 61.944C85.8725 60.9962 85.4658 60.0995 84.908 59.298L87.71 53.652L84.29 51.678L80.798 56.928C79.8248 56.843 78.8444 56.9386 77.906 57.21L77.414 52.356L72.578 55.152L72.092 60.552C71.0395 61.4846 70.0717 62.5086 69.2 63.612L65.708 62.412L62.288 68.34L65.084 70.74C64.5674 72.0465 64.1658 73.3956 63.884 74.772L59.438 77.898V83.49L63.884 81.486C64.1195 82.4337 64.5262 83.3304 65.084 84.132L62.3 89.784L65.72 91.758L69.212 86.508C70.1851 86.5927 71.1655 86.4971 72.104 86.226L72.59 91.08L77.426 88.284L77.918 82.884C79.4274 82.3333 80.7645 81.3936 81.794 80.16L84.302 81.042L87.722 75.12L85.622 73.32C86.0779 71.819 86.2468 70.2455 86.12 68.682L90.554 65.526ZM74.996 79.482C71.288 81.624 68.996 80.082 68.996 75.816C68.996 71.55 72.062 66.276 75.776 64.134C79.49 61.992 81.734 63.534 81.734 67.836C81.734 72.138 78.71 77.334 74.996 79.482Z" fill="#E0E0E0"/>
<path d="M88.178 53.916L84.29 51.678L80.798 56.928L84.686 59.172L88.178 53.916Z" fill="#F5F5F5"/>
<path d="M94.448 62.184L90.554 59.94L86.108 61.944L90.002 64.188L94.448 62.184Z" fill="#F5F5F5"/>
<path d="M76.466 93.324L72.578 91.08L72.092 86.226L75.98 88.47L76.466 93.324Z" fill="#E0E0E0"/>
<path d="M62.282 89.784L66.176 92.028L68.978 86.382L65.084 84.138L62.282 89.784Z" fill="#E0E0E0"/>
<path d="M94.448 67.8V62.214L90.002 64.2C89.7689 63.2514 89.3621 62.3542 88.802 61.554L91.604 55.908L88.184 53.928L84.692 59.184C83.7188 59.096 82.7378 59.1917 81.8 59.466L81.308 54.6L76.472 57.396L75.98 62.796C74.929 63.7301 73.9613 64.754 73.088 65.856L69.596 64.656L66.176 70.584L68.978 72.984C68.4586 74.2895 68.057 75.6389 67.778 77.016L63.332 80.142V85.734L67.778 83.73C68.0109 84.6786 68.4177 85.5758 68.978 86.376L66.176 92.022L69.596 93.996L73.088 88.746C74.0611 88.831 75.0416 88.7354 75.98 88.464L76.472 93.318L81.308 90.522L81.794 85.122C82.8465 84.1894 83.8142 83.1654 84.686 82.062L88.178 83.262L91.598 77.34L88.796 74.94C89.3152 73.6344 89.7168 72.285 89.996 70.908L94.448 67.8ZM78.89 81.756C75.176 83.898 72.164 82.158 72.164 77.874C72.164 73.59 75.164 68.376 78.89 66.228C82.616 64.08 85.61 65.826 85.61 70.11C85.61 74.394 82.598 79.578 78.89 81.726V81.756Z" fill="#EBEBEB"/>
<path d="M69.2 63.624L73.088 65.868L69.596 64.65L65.708 62.4L69.2 63.624Z" fill="#F0F0F0"/>
<path d="M65.7076 62.4061L62.2866 68.3361L66.1793 70.5818L69.6003 64.6518L65.7076 62.4061Z" fill="#F5F5F5"/>
<path d="M62.282 68.328L66.176 70.572L68.978 72.984L65.084 70.746L62.282 68.328Z" fill="#E0E0E0"/>
<path d="M63.884 74.778L67.778 77.022L63.332 80.148L59.438 77.904L63.884 74.778Z" fill="#F5F5F5"/>
<path d="M59.438 77.904L63.332 80.148V85.74L59.438 83.496V77.904Z" fill="#E0E0E0"/>
<path d="M81.308 54.6L77.414 52.356L72.578 55.152L76.466 57.396L81.308 54.6Z" fill="#F5F5F5"/>
<path d="M131.228 214.83L187.628 182.262C187.752 182.218 187.86 182.137 187.936 182.03C188.012 181.922 188.053 181.794 188.053 181.662C188.053 181.53 188.012 181.402 187.936 181.294C187.86 181.187 187.752 181.106 187.628 181.062L182.414 178.062C182.091 177.899 181.735 177.815 181.373 177.815C181.011 177.815 180.655 177.899 180.332 178.062L123.914 210.6C123.79 210.644 123.682 210.725 123.606 210.832C123.53 210.94 123.489 211.068 123.489 211.2C123.489 211.332 123.53 211.46 123.606 211.568C123.682 211.675 123.79 211.756 123.914 211.8L129.146 214.8C129.467 214.967 129.822 215.057 130.183 215.062C130.545 215.067 130.903 214.988 131.228 214.83Z" fill="#E0E0E0"/>
<path d="M186.08 56.52L135.224 85.884C134.468 86.3773 133.839 87.0418 133.388 87.8236C132.936 88.6054 132.675 89.4826 132.626 90.384V211.026C132.626 212.682 133.79 213.354 135.224 212.526L186.08 183.162C186.837 182.67 187.467 182.005 187.918 181.223C188.37 180.441 188.63 179.564 188.678 178.662V58.02C188.678 56.364 187.52 55.692 186.08 56.52Z" fill="#455A64"/>
<path d="M135.224 85.884L186.08 56.52C187.364 55.776 188.426 56.238 188.642 57.528C188.522 56.7169 188.232 55.9405 187.79 55.2497C187.349 54.5588 186.766 53.9694 186.08 53.52L183.968 52.32C183.163 51.9115 182.273 51.6986 181.37 51.6986C180.467 51.6986 179.577 51.9115 178.772 52.32L127.91 81.66C127.144 82.1403 126.512 82.8071 126.074 83.598L133.388 87.798C133.826 87.0133 134.458 86.3543 135.224 85.884Z" fill="#37474F"/>
<path d="M125.3 206.802C125.349 207.703 125.61 208.58 126.061 209.362C126.513 210.144 127.142 210.809 127.898 211.302L130.016 212.502C130.749 212.869 131.551 213.076 132.37 213.112C133.189 213.147 134.006 213.008 134.768 212.706C133.568 213.174 132.614 212.484 132.614 211.002V90.384C132.644 89.4787 132.906 88.5965 133.376 87.8219L126.062 83.6219C125.599 84.3906 125.337 85.2634 125.3 86.16V206.802Z" fill="#263238"/>
<path d="M136.622 101.958L184.7 74.208C185.564 73.716 186.26 74.118 186.26 75.108V164.4C186.231 164.941 186.075 165.468 185.804 165.937C185.533 166.406 185.154 166.805 184.7 167.1L136.64 194.85C135.776 195.348 135.08 194.946 135.08 193.95V104.658C135.107 104.119 135.261 103.593 135.529 103.124C135.797 102.655 136.171 102.256 136.622 101.958Z" fill="white"/>
<path d="M160.652 75.774C160.387 75.9482 160.166 76.1823 160.007 76.4574C159.849 76.7325 159.757 77.041 159.74 77.358C159.74 77.958 160.148 78.18 160.652 77.886C160.918 77.7128 161.14 77.479 161.298 77.2036C161.457 76.9283 161.548 76.6193 161.564 76.302C161.564 75.72 161.156 75.486 160.652 75.774Z" fill="#37474F"/>
<path d="M160.652 185.244C159.603 185.93 158.731 186.854 158.105 187.94C157.48 189.026 157.119 190.244 157.052 191.496C157.052 193.794 158.666 194.73 160.652 193.578C161.701 192.891 162.573 191.968 163.198 190.882C163.824 189.796 164.185 188.577 164.252 187.326C164.264 185.028 162.644 184.092 160.652 185.244Z" fill="#37474F"/>
<path d="M152.018 85.0619C151.491 85.412 151.053 85.8811 150.74 86.4314C150.428 86.9817 150.249 87.5978 150.218 88.2299C150.218 89.3939 151.034 89.8679 152.018 89.2859C152.551 88.9392 152.994 88.4716 153.312 87.9211C153.63 87.3706 153.814 86.7528 153.848 86.1179C153.848 84.9539 153.032 84.4799 152.018 85.0619Z" fill="#37474F"/>
<path d="M156.5 84.666C156.5 85.446 157.1 85.74 157.802 85.326L169.802 78.384C170.174 78.1518 170.485 77.8352 170.712 77.4599C170.938 77.0845 171.072 76.6611 171.104 76.224C171.104 75.45 170.504 75.156 169.802 75.57L157.802 82.512C157.431 82.7435 157.12 83.0592 156.894 83.4334C156.667 83.8077 156.533 84.2299 156.5 84.666Z" fill="#37474F"/>
<path d="M129.356 105.822C129.782 106.099 130.136 106.473 130.391 106.913C130.645 107.353 130.792 107.847 130.82 108.354C130.82 109.29 130.166 109.668 129.356 109.2C128.932 108.922 128.579 108.547 128.325 108.108C128.072 107.668 127.926 107.175 127.898 106.668C127.898 105.738 128.552 105.36 129.356 105.822Z" fill="#37474F"/>
<path d="M129.356 117.09C129.782 117.367 130.136 117.741 130.391 118.181C130.645 118.621 130.792 119.115 130.82 119.622C130.82 120.552 130.166 120.93 129.356 120.468C128.932 120.19 128.579 119.815 128.325 119.376C128.072 118.936 127.926 118.443 127.898 117.936C127.898 117 128.552 116.622 129.356 117.09Z" fill="#37474F"/>
<path d="M128.9 106.05C129.326 106.327 129.68 106.701 129.935 107.141C130.189 107.581 130.336 108.075 130.364 108.582C130.364 109.512 129.71 109.89 128.9 109.428C128.474 109.151 128.12 108.777 127.865 108.337C127.611 107.897 127.464 107.403 127.436 106.896C127.442 105.96 128.096 105.6 128.9 106.05Z" fill="#455A64"/>
<path d="M128.9 117.312C129.327 117.59 129.682 117.965 129.936 118.406C130.19 118.847 130.337 119.342 130.364 119.85C130.364 120.78 129.71 121.158 128.9 120.69C128.473 120.414 128.118 120.04 127.864 119.6C127.609 119.16 127.463 118.666 127.436 118.158C127.442 117.228 128.096 116.85 128.9 117.312Z" fill="#455A64"/>
<path d="M195.992 77.934C195.992 76.938 195.296 76.536 194.432 77.034L188.678 80.352L146.372 104.784C145.918 105.079 145.539 105.478 145.268 105.947C144.997 106.416 144.841 106.943 144.812 107.484V196.752C144.812 197.748 145.508 198.15 146.372 197.652L188.696 173.214L194.432 169.902C194.886 169.607 195.265 169.208 195.536 168.739C195.807 168.27 195.963 167.743 195.992 167.202V77.934Z" fill="white"/>
<path d="M196.592 77.934C196.63 77.6331 196.578 77.3277 196.443 77.0561C196.308 76.7845 196.096 76.5587 195.834 76.4069C195.571 76.2552 195.27 76.1842 194.967 76.2029C194.664 76.2216 194.374 76.3291 194.132 76.512L188.642 79.686L146.072 104.286C145.524 104.632 145.068 105.106 144.744 105.667C144.42 106.229 144.238 106.86 144.212 107.508V196.752C144.188 197.052 144.246 197.352 144.379 197.621C144.512 197.891 144.715 198.119 144.968 198.282C145.183 198.407 145.428 198.471 145.676 198.468C146.028 198.457 146.371 198.356 146.672 198.174L189.272 173.574L194.75 170.412C195.295 170.063 195.748 169.588 196.072 169.027C196.395 168.467 196.58 167.837 196.61 167.19L196.592 77.934ZM188.654 172.548L188.162 172.836L146.096 197.124C146.025 197.178 145.943 197.216 145.856 197.235C145.769 197.254 145.679 197.253 145.592 197.232C145.514 197.184 145.436 197.016 145.436 196.74V107.484C145.467 107.048 145.597 106.625 145.815 106.247C146.033 105.869 146.334 105.545 146.696 105.3L188.72 81L194.72 77.526C194.791 77.4717 194.873 77.4338 194.96 77.4151C195.047 77.3964 195.137 77.3974 195.224 77.418C195.302 77.466 195.38 77.634 195.38 77.91V167.202C195.349 167.638 195.219 168.061 195.001 168.439C194.783 168.817 194.482 169.141 194.12 169.386L188.642 172.548H188.654Z" fill="#4ADEDD"/>
<path d="M170.402 98.676C175.802 95.568 180.152 98.076 180.152 104.31C180.152 110.544 175.784 118.11 170.402 121.194C165.02 124.278 160.652 121.794 160.652 115.566C160.652 109.338 165.02 101.79 170.402 98.676Z" fill="#4ADEDD"/>
<path d="M170.402 103.572C172.148 102.564 173.564 103.38 173.564 105.372C173.505 106.469 173.187 107.537 172.638 108.489C172.089 109.441 171.323 110.25 170.402 110.85C168.656 111.858 167.24 111.042 167.24 109.05C167.299 107.953 167.617 106.885 168.166 105.933C168.715 104.981 169.481 104.172 170.402 103.572Z" fill="#4ADEDD"/>
<path d="M176.564 114.324C176.564 111.012 174.242 109.668 171.368 111.324L169.568 112.362C166.7 114.018 164.372 118.05 164.372 121.362V122.256C166.034 122.802 168.122 122.508 170.372 121.194C172.864 119.657 174.972 117.569 176.534 115.092L176.564 114.324Z" fill="#4ADEDD"/>
<path opacity="0.7" d="M170.402 103.572C172.148 102.564 173.564 103.38 173.564 105.372C173.505 106.469 173.187 107.537 172.638 108.489C172.089 109.441 171.323 110.25 170.402 110.85C168.656 111.858 167.24 111.042 167.24 109.05C167.299 107.953 167.617 106.885 168.166 105.933C168.715 104.981 169.481 104.172 170.402 103.572Z" fill="white"/>
<path opacity="0.7" d="M176.564 114.324C176.564 111.012 174.242 109.668 171.368 111.324L169.568 112.362C166.7 114.018 164.372 118.05 164.372 121.362V122.256C166.034 122.802 168.122 122.508 170.372 121.194C172.864 119.657 174.972 117.569 176.534 115.092L176.564 114.324Z" fill="white"/>
<path d="M151.538 134.904L164.084 127.662C164.684 127.332 165.122 127.596 165.122 128.262V128.676C165.103 129.037 164.999 129.388 164.819 129.7C164.638 130.013 164.387 130.279 164.084 130.476L151.538 137.718C150.968 138.048 150.5 137.778 150.5 137.118V136.704C150.519 136.344 150.624 135.993 150.804 135.68C150.984 135.367 151.236 135.101 151.538 134.904Z" fill="#4ADEDD"/>
<path opacity="0.1" d="M151.538 134.904L164.084 127.662C164.684 127.332 165.122 127.596 165.122 128.262V128.676C165.103 129.037 164.999 129.388 164.819 129.7C164.638 130.013 164.387 130.279 164.084 130.476L151.538 137.718C150.968 138.048 150.5 137.778 150.5 137.118V136.704C150.519 136.344 150.624 135.993 150.804 135.68C150.984 135.367 151.236 135.101 151.538 134.904Z" fill="black"/>
<path d="M151.022 143.646L188.978 121.734C189.26 121.566 189.494 121.698 189.494 122.034V126.462C189.483 126.642 189.431 126.816 189.342 126.973C189.252 127.129 189.128 127.262 188.978 127.362L151.022 149.274C150.734 149.442 150.5 149.304 150.5 148.974V144.546C150.51 144.366 150.563 144.19 150.654 144.034C150.744 143.877 150.87 143.745 151.022 143.646Z" fill="#4ADEDD"/>
<path opacity="0.2" d="M151.022 143.646L188.978 121.734C189.26 121.566 189.494 121.698 189.494 122.034V126.462C189.483 126.642 189.431 126.816 189.342 126.973C189.252 127.129 189.128 127.262 188.978 127.362L151.022 149.274C150.734 149.442 150.5 149.304 150.5 148.974V144.546C150.51 144.366 150.563 144.19 150.654 144.034C150.744 143.877 150.87 143.745 151.022 143.646Z" fill="white"/>
<path d="M151.538 154.602L164.084 147.36C164.684 147.03 165.122 147.3 165.122 147.96V148.374C165.103 148.735 165 149.086 164.819 149.399C164.639 149.712 164.387 149.977 164.084 150.174L151.538 157.416C150.968 157.752 150.5 157.482 150.5 156.816V156.402C150.52 156.042 150.625 155.691 150.805 155.379C150.985 155.066 151.236 154.8 151.538 154.602Z" fill="#4ADEDD"/>
<path opacity="0.1" d="M151.538 154.602L164.084 147.36C164.684 147.03 165.122 147.3 165.122 147.96V148.374C165.103 148.735 165 149.086 164.819 149.399C164.639 149.712 164.387 149.977 164.084 150.174L151.538 157.416C150.968 157.752 150.5 157.482 150.5 156.816V156.402C150.52 156.042 150.625 155.691 150.805 155.379C150.985 155.066 151.236 154.8 151.538 154.602Z" fill="black"/>
<path d="M151.022 163.344L188.978 141.432C189.26 141.264 189.494 141.402 189.494 141.732V146.16C189.483 146.34 189.431 146.514 189.342 146.671C189.252 146.827 189.128 146.96 188.978 147.06L151.022 168.972C150.734 169.14 150.5 169.008 150.5 168.672V164.244C150.51 164.064 150.563 163.888 150.654 163.732C150.744 163.575 150.87 163.443 151.022 163.344Z" fill="#4ADEDD"/>
<path opacity="0.2" d="M151.022 163.344L188.978 141.432C189.26 141.264 189.494 141.402 189.494 141.732V146.16C189.483 146.34 189.431 146.514 189.342 146.671C189.252 146.827 189.128 146.96 188.978 147.06L151.022 168.972C150.734 169.14 150.5 169.008 150.5 168.672V164.244C150.51 164.064 150.563 163.888 150.654 163.732C150.744 163.575 150.87 163.443 151.022 163.344Z" fill="white"/>
<path d="M166.16 165.858L181.16 157.212C181.76 156.876 182.204 157.146 182.204 157.812V162.444C182.184 162.805 182.08 163.156 181.898 163.469C181.717 163.782 181.464 164.048 181.16 164.244L166.16 172.896C165.56 173.226 165.122 172.956 165.122 172.296V167.658C165.143 167.298 165.248 166.948 165.428 166.635C165.608 166.322 165.859 166.056 166.16 165.858Z" fill="#4ADEDD"/>
<path opacity="0.1" d="M166.16 165.858L181.16 157.212C181.76 156.876 182.204 157.146 182.204 157.812V162.444C182.184 162.805 182.08 163.156 181.898 163.469C181.717 163.782 181.464 164.048 181.16 164.244L166.16 172.896C165.56 173.226 165.122 172.956 165.122 172.296V167.658C165.143 167.298 165.248 166.948 165.428 166.635C165.608 166.322 165.859 166.056 166.16 165.858Z" fill="black"/>
<path d="M201.68 146.31C201.68 146.31 194.312 136.146 193.88 134.91C193.538 133.998 193.88 132.642 193.988 132.012C194.096 131.382 194.192 129.978 194.3 129.612C194.48 128.928 193.598 129.066 193.1 129.69C192.602 130.314 192.434 131.562 192.176 131.766C191.918 131.97 189.956 129.108 188.93 127.788C187.904 126.468 187.262 125.664 186.632 126.156C186.182 126.51 186.518 127.278 187.262 128.406C187.697 129.013 188.097 129.644 188.462 130.296C188.576 130.542 187.964 130.56 187.634 131.07C187.376 131.466 187.634 132.108 187.274 132.414C187.052 132.583 186.901 132.827 186.848 133.1C186.794 133.373 186.844 133.657 186.986 133.896C187.654 134.945 188.515 135.857 189.524 136.584C190.628 137.346 191.072 137.616 191.726 138.654C192.38 139.692 198.248 150.294 198.644 150.93C199.04 151.566 199.802 152.862 200.96 152.898C202.118 152.934 211.598 144.774 212.084 144.366C213.644 143.064 214.142 142.878 214.406 144.048C214.497 144.464 214.565 144.885 214.61 145.308C214.796 146.796 215.81 152.112 215.81 152.112C215.81 152.112 220.61 154.434 224.552 153.312C228.494 152.19 229.826 150.516 229.826 150.516L227.852 147.3C228.386 145.974 230.852 140.598 231.65 136.836L219.29 134.838C219.038 134.784 218.63 134.682 218.09 134.544C217.412 134.364 215.69 133.77 214.388 134.91C210.14 138.612 201.692 146.31 201.692 146.31" fill="#FFA8A7"/>
<path d="M226.184 208.674L223.97 211.752C224.976 212.222 226.076 212.458 227.186 212.442C229.172 212.514 229.718 211.842 229.79 211.71C230.126 210.99 229.604 209.694 229.46 208.578L226.184 208.674Z" fill="#37474F"/>
<path d="M224.096 210.276C224.096 210.276 221.408 210.102 219.554 209.874C217.7 209.646 216.23 210.546 216.662 211.308C217.094 212.07 218.12 212.706 219.716 213.24C221.078 213.702 222.716 214.032 224.132 214.44C225.548 214.848 226.532 215.382 227.354 215.094C228.272 214.776 228.668 214.41 228.59 213.738C228.39 212.782 228.141 211.837 227.846 210.906L224.096 210.276Z" fill="#37474F"/>
<path d="M229.79 205.584C229.79 205.584 229.454 208.38 229.43 208.98C229.406 209.58 226.7 209.772 226.184 208.674L226.1 205.254L229.79 205.584Z" fill="#F28F8F"/>
<path d="M227.066 207.3L228.032 211.548C228.032 211.548 228.122 212.064 225.914 212.394C223.706 212.724 220.238 211.236 219.644 210.936C219.05 210.636 218.984 210.03 221.156 210.15C223.328 210.27 224.096 210.276 224.096 210.276L223.388 208.398L227.066 207.3Z" fill="#FFA8A7"/>
<path d="M231.614 136.8L233.144 136.374C233.144 136.374 236.342 146.496 236.696 147.474C237.05 148.452 237.452 149.484 236.762 150.69C235.94 152.124 231.614 157.89 231.614 157.89L228.866 155.202L231.986 149.49L229.226 143.91L231.614 136.8Z" fill="#F28F8F"/>
<path d="M215.9 123.654C215.541 122.981 215.359 122.227 215.371 121.464C215.382 120.702 215.587 119.954 215.966 119.292C217.49 116.466 220.886 115.092 224.93 115.614C226.802 115.86 229.01 117.414 230.216 119.736C231.548 122.31 231.674 127.494 232.016 129.456L215.9 123.654Z" fill="#37474F"/>
<path d="M215.792 124.764C215.792 124.764 214.832 126.594 215 126.762C215.249 126.907 215.521 127.009 215.804 127.062L215.792 124.764Z" fill="#FFA8A7"/>
<path d="M218.708 118.98C217.664 119.658 215.864 120.906 215.786 125.016C215.702 129.216 216.302 130.602 216.926 131.088C217.346 131.418 219.812 131.25 220.868 131.004C221.924 130.758 224.966 129.252 226.064 126.966C227.354 124.278 227.09 120.366 225.176 119.166C224.202 118.59 223.097 118.271 221.966 118.238C220.835 118.206 219.714 118.461 218.708 118.98Z" fill="#FFA8A7"/>
<path d="M229.79 150.492C231.638 153.372 233.39 155.892 233.774 159.144C234.566 165.978 231.974 173.79 231.416 178.848C232.465 180.287 233.07 182.001 233.156 183.78C233.156 185.874 229.79 205.584 229.79 205.584C229.79 205.584 227.342 206.328 226.1 205.254L223.79 168.996L224.99 164.58L229.79 150.492Z" fill="#4ADEDD"/>
<path opacity="0.2" d="M229.79 150.492C231.638 153.372 233.39 155.892 233.774 159.144C234.566 165.978 231.974 173.79 231.416 178.848C232.465 180.287 233.07 182.001 233.156 183.78C233.156 185.874 229.79 205.584 229.79 205.584C229.79 205.584 227.342 206.328 226.1 205.254L223.79 168.996L224.99 164.58L229.79 150.492Z" fill="black"/>
<path d="M223.79 168.996L224.99 164.58C227.288 163.975 229.504 163.095 231.59 161.958C231.59 161.958 230.342 164.232 226.754 165.48L224.9 171.15L224.744 184.14L223.79 168.996Z" fill="#4ADEDD"/>
<path opacity="0.3" d="M223.79 168.996L224.99 164.58C227.288 163.975 229.504 163.095 231.59 161.958C231.59 161.958 230.342 164.232 226.754 165.48L224.9 171.15L224.744 184.14L223.79 168.996Z" fill="black"/>
<path d="M229.79 150.492C230.78 152.112 233.144 154.872 232.64 157.53C232.04 160.746 230.3 163.008 225.008 164.58L220.04 182.58C220.04 182.58 222.626 184.98 223.418 187.302C224.21 189.624 227.066 207.312 227.066 207.312C227.066 207.312 226.178 208.758 223.388 208.41C223.388 208.41 213.662 186.21 212.978 184.764C212.148 183.3 211.857 181.591 212.156 179.934C212.462 177.606 215.756 152.124 215.756 152.124L229.79 150.492Z" fill="#4ADEDD"/>
<path opacity="0.2" d="M229.79 150.492C230.78 152.112 233.144 154.872 232.64 157.53C232.04 160.746 230.3 163.008 225.008 164.58L220.04 182.58C220.04 182.58 222.626 184.98 223.418 187.302C224.21 189.624 227.066 207.312 227.066 207.312C227.066 207.312 226.178 208.758 223.388 208.41C223.388 208.41 213.662 186.21 212.978 184.764C212.148 183.3 211.857 181.591 212.156 179.934C212.462 177.606 215.756 152.124 215.756 152.124L229.79 150.492Z" fill="black"/>
<path d="M231.614 136.8L219.254 134.802C219.002 134.748 218.594 134.646 218.054 134.508C218.054 134.508 217.526 142.26 214.352 144.036C214.43 144.408 214.496 144.822 214.556 145.296C214.742 146.784 215.756 152.1 215.756 152.1C215.756 152.1 220.556 154.422 224.498 153.3C228.44 152.178 229.772 150.504 229.772 150.504L227.798 147.288C228.35 145.95 230.834 140.574 231.614 136.8Z" fill="#4ADEDD"/>
<path opacity="0.7" d="M231.614 136.8L219.254 134.802C219.002 134.748 218.594 134.646 218.054 134.508C218.054 134.508 217.526 142.26 214.352 144.036C214.43 144.408 214.496 144.822 214.556 145.296C214.742 146.784 215.756 152.1 215.756 152.1C215.756 152.1 220.556 154.422 224.498 153.3C228.44 152.178 229.772 150.504 229.772 150.504L227.798 147.288C228.35 145.95 230.834 140.574 231.614 136.8Z" fill="white"/>
<path d="M228.356 146.01C226.715 146.996 224.995 147.845 223.214 148.548C224.83 148.516 226.413 148.078 227.816 147.276L228.356 146.01Z" fill="#4ADEDD"/>
<path d="M218.402 119.184C218.402 119.184 217.802 123.084 219.218 125.376C219.218 125.376 219.746 123.822 221.06 124.116C222.374 124.41 222.446 126.144 221.522 127.116C221.287 127.389 220.98 127.59 220.636 127.696C220.292 127.802 219.926 127.809 219.578 127.716C219.578 127.716 219.368 130.536 219.254 132.9C219.14 135.264 218.516 140.418 221.174 142.5C223.832 144.582 230.504 145.314 233.63 140.946C235.37 138.516 233.06 134.22 231.986 129.402C230.996 124.974 230.438 118.41 225.74 117.354C221.042 116.298 218.402 119.184 218.402 119.184Z" fill="#37474F"/>
<path d="M235.64 65.898L234.65 66.498C234.733 66.1458 234.779 65.7858 234.788 65.424C234.788 63.414 233.378 62.604 231.638 63.624C231.109 63.9434 230.636 64.349 230.24 64.824C230.24 62.124 228.344 61.026 226.004 62.376C224.771 63.1802 223.745 64.2637 223.009 65.5386C222.273 66.8136 221.848 68.2441 221.768 69.714C221.768 69.852 221.768 69.984 221.768 70.116C221.165 70.0402 220.555 70.1805 220.046 70.512C219.129 71.1095 218.366 71.9147 217.819 72.8623C217.271 73.81 216.955 74.8733 216.896 75.966C216.896 76.22 216.922 76.4734 216.974 76.722L216.446 77.028C215.012 77.856 213.848 79.47 213.848 80.628C213.848 81.786 215.012 82.062 216.446 81.228L235.646 70.158C237.08 69.33 238.244 67.716 238.244 66.558C238.244 65.4 237.074 65.064 235.64 65.898Z" fill="#EBEBEB"/>
</svg>
