<svg width="251" height="306" viewBox="0 0 251 306" fill="none" xmlns="http://www.w3.org/2000/svg">
<g opacity="0.7" clip-path="url(#clip0_46_1505)">
<path d="M127.934 -48.5563C195.853 -113.011 242.85 -197.271 263.344 -291.34C270.463 -324.027 310.844 -333.284 334.475 -307.658C402.48 -233.891 488.539 -180.15 582.443 -152.817C615.072 -143.322 626.922 -101.441 603.327 -79.0433C535.408 -14.5883 488.411 69.6711 467.917 163.741C460.798 196.427 420.418 205.685 396.787 180.058C328.781 106.291 242.722 52.5508 148.819 25.2175C116.189 15.722 104.339 -26.1587 127.934 -48.5563Z" stroke="url(#paint0_linear_46_1505)" stroke-opacity="0.3" stroke-width="3" stroke-miterlimit="10"/>
<path d="M130.837 -30.8312C193.62 -100.492 234.224 -188.439 247.83 -284.253C252.56 -317.545 291.965 -329.838 317.247 -305.903C390.023 -237.029 479.274 -189.568 574.424 -169.152C607.486 -162.056 622.255 -120.966 600.436 -96.7663C537.653 -27.1056 497.049 60.842 483.443 156.655C478.713 189.947 439.308 202.241 414.026 178.305C341.25 109.431 251.999 61.9705 156.848 41.5549C123.786 34.4698 109.022 -6.62494 130.837 -30.8312Z" stroke="url(#paint1_linear_46_1505)" stroke-opacity="0.3" stroke-width="3" stroke-miterlimit="10"/>
<path d="M134.991 -13.2811C192.308 -87.7723 226.301 -178.95 232.933 -275.992C235.234 -309.711 273.466 -324.965 300.276 -302.857C377.431 -239.238 469.409 -198.312 565.293 -184.937C598.61 -180.294 616.211 -140.2 596.293 -114.315C538.976 -39.8235 504.983 51.354 498.351 148.396C496.05 182.115 457.818 197.369 431.008 175.262C353.853 111.643 261.875 70.7157 165.991 57.3414C132.669 52.6912 115.073 12.6041 134.991 -13.2811Z" stroke="url(#paint2_linear_46_1505)" stroke-opacity="0.3" stroke-width="3" stroke-miterlimit="10"/>
<path d="M140.36 3.99589C191.904 -74.9352 219.11 -168.843 218.739 -266.61C218.609 -300.579 255.46 -318.708 283.64 -298.549C364.768 -240.526 458.969 -206.347 555.091 -200.077C588.488 -197.9 608.822 -159.021 590.913 -131.605C539.37 -52.6736 512.164 41.2339 512.535 139.002C512.665 172.97 475.814 191.099 447.634 170.94C366.506 112.917 272.305 78.7383 176.183 72.4683C142.786 70.2909 122.451 31.4235 140.36 3.99589Z" stroke="url(#paint3_linear_46_1505)" stroke-opacity="0.3" stroke-width="3" stroke-miterlimit="10"/>
<path d="M146.932 20.9162C192.43 -62.0291 212.696 -158.185 205.331 -256.141C202.769 -290.18 238.036 -311.093 267.452 -292.98C352.116 -240.86 448.057 -213.617 543.888 -214.48C577.189 -214.782 600.154 -177.332 584.341 -148.514C538.843 -65.5685 518.577 30.5879 525.942 128.544C528.504 162.583 493.237 183.496 463.821 165.382C379.156 113.262 283.216 86.0195 187.385 86.8822C154.084 87.1841 131.124 49.7413 146.932 20.9162Z" stroke="url(#paint4_linear_46_1505)" stroke-opacity="0.3" stroke-width="3" stroke-miterlimit="10"/>
<path d="M154.663 37.3861C193.871 -49.1371 207.099 -147.017 192.766 -244.649C187.788 -278.571 221.289 -302.161 251.774 -286.198C339.53 -240.26 436.687 -220.09 531.726 -228.092C564.747 -230.87 590.224 -195.043 576.599 -164.986C537.391 -78.4625 524.163 19.4177 538.495 117.049C543.473 150.972 509.973 174.562 479.487 158.598C391.732 112.66 294.574 92.4903 199.536 100.492C166.514 103.27 141.042 67.4503 154.663 37.3861Z" stroke="url(#paint5_linear_46_1505)" stroke-opacity="0.3" stroke-width="3" stroke-miterlimit="10"/>
<path d="M163.522 53.3139C196.234 -36.3271 202.348 -135.414 181.134 -232.21C173.762 -265.845 205.316 -291.976 236.721 -278.246C327.1 -238.733 424.96 -225.748 518.709 -240.837C551.285 -246.08 579.129 -212.069 567.763 -180.921C535.051 -91.28 528.937 7.80673 550.151 104.603C557.523 138.238 525.969 164.369 494.565 150.639C404.185 111.126 306.319 98.1458 212.57 113.235C180 118.473 152.15 84.4663 163.522 53.3139Z" stroke="url(#paint6_linear_46_1505)" stroke-opacity="0.3" stroke-width="3" stroke-miterlimit="10"/>
<path d="M173.444 68.6246C199.485 -23.657 198.455 -123.425 170.472 -218.865C160.75 -252.025 190.185 -280.566 222.337 -269.14C314.86 -236.262 412.904 -230.529 504.859 -252.625C536.808 -260.302 566.878 -228.291 557.828 -196.222C531.788 -103.941 532.818 -4.17266 560.801 91.2673C570.523 124.427 541.088 152.968 508.935 141.543C416.413 108.665 318.368 102.932 226.414 125.028C194.469 132.711 164.401 100.689 173.444 68.6246Z" stroke="url(#paint7_linear_46_1505)" stroke-opacity="0.3" stroke-width="3" stroke-miterlimit="10"/>
<path d="M184.397 83.2375C203.631 -11.1949 195.46 -111.113 160.85 -204.687C148.823 -237.198 175.998 -268 208.717 -258.939C302.892 -232.867 400.598 -234.42 490.267 -263.412C521.421 -273.487 553.56 -243.632 546.875 -210.824C527.64 -116.391 535.812 -16.4734 570.422 77.101C582.449 109.612 555.274 140.414 522.555 131.352C428.386 105.276 330.674 106.833 241.004 135.826C209.845 145.894 177.711 116.046 184.397 83.2375Z" stroke="url(#paint8_linear_46_1505)" stroke-opacity="0.3" stroke-width="3" stroke-miterlimit="10"/>
<path d="M196.31 97.0599C208.635 0.983649 193.366 -98.5635 152.312 -189.773C138.049 -221.467 162.809 -254.361 195.934 -247.709C291.255 -228.584 388.114 -237.412 475.02 -273.148C505.218 -285.563 539.25 -258.032 534.962 -224.646C522.637 -128.57 537.905 -29.0226 578.959 62.1873C593.223 93.881 568.462 126.775 535.338 120.123C440.016 100.998 343.158 109.826 256.252 145.562C226.059 157.972 192.027 130.441 196.31 97.0599Z" stroke="url(#paint9_linear_46_1505)" stroke-opacity="0.3" stroke-width="3" stroke-miterlimit="10"/>
<path d="M209.121 110.023C214.468 12.8045 192.184 -85.827 144.913 -174.195C128.487 -204.897 150.7 -239.709 184.051 -235.51C280.022 -223.435 375.503 -239.492 459.191 -281.773C488.268 -296.465 524.014 -271.405 522.152 -237.621C516.804 -140.402 539.089 -41.7705 586.36 46.5974C602.786 77.2999 580.572 112.112 547.221 107.912C451.262 95.8399 355.77 111.895 272.081 154.176C243.005 168.868 207.259 143.808 209.121 110.023Z" stroke="url(#paint10_linear_46_1505)" stroke-opacity="0.3" stroke-width="3" stroke-miterlimit="10"/>
<path d="M230.431 109.845C228.771 12.0091 199.591 -85.2016 146.356 -170.251C127.859 -199.802 147.405 -236.346 180.802 -234.618C276.903 -229.661 370.511 -252.854 450.536 -301.458C478.34 -318.344 515.607 -295.891 516.18 -261.892C517.84 -164.056 547.015 -66.8517 600.255 18.2041C618.752 47.7552 599.206 84.2993 565.809 82.5717C469.708 77.6144 376.1 100.808 296.075 149.411C268.271 166.297 231.01 143.84 230.431 109.845Z" stroke="url(#paint11_linear_46_1505)" stroke-opacity="0.3" stroke-width="3" stroke-miterlimit="10"/>
<path d="M237.166 133.129C228.508 35.1914 192.59 -60.0692 133.66 -141.355C113.18 -169.601 129.975 -207.678 163.231 -208.438C258.956 -210.622 350.195 -240.836 426.126 -295.508C452.511 -314.509 491.099 -294.763 494.107 -260.738C502.766 -162.8 538.684 -67.5397 597.614 13.7461C618.094 41.9921 601.299 80.0694 568.043 80.8289C472.318 83.0133 381.079 113.227 305.148 167.9C278.763 186.9 240.174 167.165 237.166 133.129Z" stroke="url(#paint12_linear_46_1505)" stroke-opacity="0.3" stroke-width="3" stroke-miterlimit="10"/>
<path d="M252.254 143.143C236.653 45.6258 194.174 -47.1811 129.871 -124.267C107.528 -151.049 121.461 -190.471 154.414 -193.699C249.254 -203.005 337.633 -240.088 409.068 -300.535C433.886 -321.538 473.603 -304.624 479.019 -270.741C494.619 -173.223 537.099 -80.4165 601.402 -3.3304C623.745 23.4512 609.812 62.8732 576.859 66.1017C482.019 75.4069 393.64 112.49 322.204 172.938C297.386 193.94 257.675 177.033 252.254 143.143Z" stroke="url(#paint13_linear_46_1505)" stroke-opacity="0.3" stroke-width="3" stroke-miterlimit="10"/>
<path d="M267.939 152.055C245.464 55.4721 196.671 -34.3884 127.334 -106.864C103.241 -132.046 114.244 -172.594 146.717 -178.282C240.17 -194.674 325.222 -238.408 391.781 -304.31C414.907 -327.21 455.531 -313.212 463.334 -279.653C485.809 -183.07 534.602 -93.2092 603.939 -20.7338C628.032 4.44851 617.029 44.9964 584.556 50.6845C491.103 67.0761 406.05 110.81 339.492 176.712C316.366 199.612 275.747 185.621 267.939 152.055Z" stroke="url(#paint14_linear_46_1505)" stroke-opacity="0.3" stroke-width="3" stroke-miterlimit="10"/>
<path d="M284.152 159.824C254.932 64.6944 200.072 -21.7383 126.065 -89.2287C100.35 -112.68 108.367 -154.133 140.18 -162.26C231.745 -185.64 313.014 -235.804 374.353 -306.817C395.667 -331.491 436.978 -320.482 447.133 -287.431C476.353 -192.301 531.213 -105.869 605.22 -38.3783C630.935 -14.9271 622.918 26.5257 591.105 34.6527C499.54 58.0332 418.271 108.197 356.932 179.21C335.612 203.889 294.301 192.88 284.152 159.824Z" stroke="url(#paint15_linear_46_1505)" stroke-opacity="0.3" stroke-width="3" stroke-miterlimit="10"/>
<path d="M300.788 166.404C264.978 73.227 204.343 -9.31806 126.067 -71.4594C98.867 -93.0519 103.853 -135.198 134.845 -145.705C224.043 -175.951 301.096 -232.28 356.883 -308.017C376.268 -334.335 418.055 -326.375 430.496 -294C466.306 -200.823 526.941 -118.278 605.217 -56.1363C632.417 -34.5438 627.431 7.60266 596.439 18.1097C507.242 48.3551 430.188 104.684 374.401 180.421C355.022 206.734 313.229 198.779 300.788 166.404Z" stroke="url(#paint16_linear_46_1505)" stroke-opacity="0.3" stroke-width="3" stroke-miterlimit="10"/>
<path d="M317.772 171.758C275.556 81.0329 209.472 2.80721 127.339 -53.6484C98.8009 -73.2643 100.727 -115.873 130.735 -128.719C217.085 -165.676 289.52 -227.865 339.454 -307.929C356.804 -335.748 398.837 -330.883 413.512 -299.354C455.729 -208.629 521.812 -130.403 603.945 -73.9472C632.483 -54.3313 630.557 -11.7227 600.549 1.12378C514.199 38.0806 441.764 100.269 391.83 180.333C374.475 208.146 332.442 203.28 317.772 171.758Z" stroke="url(#paint17_linear_46_1505)" stroke-opacity="0.3" stroke-width="3" stroke-miterlimit="10"/>
<path d="M335.009 175.865C286.616 88.0749 215.429 14.5861 129.878 -35.8884C100.151 -53.4212 99.0127 -96.2793 127.868 -111.379C210.911 -154.845 278.34 -222.568 322.16 -306.532C337.381 -335.707 379.451 -333.955 396.263 -303.451C444.656 -215.661 515.842 -142.172 601.394 -91.6979C631.12 -74.1652 632.259 -31.3069 603.404 -16.2071C520.36 27.2585 452.931 94.982 409.112 178.945C393.892 208.109 351.827 206.364 335.009 175.865Z" stroke="url(#paint18_linear_46_1505)" stroke-opacity="0.3" stroke-width="3" stroke-miterlimit="10"/>
<path d="M352.416 178.691C298.102 94.3025 222.196 25.9403 133.677 -18.2787C102.925 -33.6424 98.7147 -76.5148 126.273 -93.8007C205.569 -143.546 267.636 -216.44 305.102 -303.859C318.119 -334.23 359.995 -335.615 378.868 -306.287C433.182 -221.898 509.088 -153.536 597.607 -109.317C628.359 -93.9534 632.569 -51.081 605.011 -33.7951C525.715 15.9501 463.648 88.8438 426.182 176.264C413.154 206.632 371.284 208.013 352.416 178.691Z" stroke="url(#paint19_linear_46_1505)" stroke-opacity="0.3" stroke-width="3" stroke-miterlimit="10"/>
<path d="M369.879 180.23C309.943 99.6864 229.702 36.8175 138.702 -0.917547C107.08 -14.0328 99.8383 -56.6878 125.941 -76.0604C201.075 -131.823 257.443 -209.507 288.359 -299.909C299.106 -331.32 340.562 -335.817 361.388 -307.834C421.336 -227.289 501.566 -164.422 592.572 -126.691C624.194 -113.576 631.436 -70.9211 605.333 -51.5485C530.199 4.2139 473.831 81.8977 442.915 172.3C432.166 203.723 390.711 208.22 369.879 180.23Z" stroke="url(#paint20_linear_46_1505)" stroke-opacity="0.3" stroke-width="3" stroke-miterlimit="10"/>
<path d="M369.879 180.23C309.943 99.6864 229.702 36.8175 138.702 -0.917547C107.08 -14.0328 99.8383 -56.6878 125.941 -76.0604C201.075 -131.823 257.443 -209.507 288.359 -299.909C299.106 -331.32 340.562 -335.817 361.388 -307.834C421.336 -227.289 501.566 -164.422 592.572 -126.691C624.194 -113.576 631.436 -70.9211 605.333 -51.5485C530.199 4.2139 473.831 81.8977 442.915 172.3C432.166 203.723 390.711 208.22 369.879 180.23Z" stroke="url(#paint21_linear_46_1505)" stroke-opacity="0.3" stroke-width="3" stroke-miterlimit="10"/>
<path d="M387.331 180.481C322.077 104.21 237.952 47.1721 144.93 16.1163C112.609 5.33056 102.364 -36.8886 126.882 -58.2493C197.45 -119.724 247.821 -201.783 272.036 -294.698C280.445 -326.983 321.267 -334.577 343.942 -308.078C409.196 -231.808 493.32 -174.77 586.343 -143.714C618.664 -132.928 628.909 -90.709 604.391 -69.3483C533.823 -7.87371 483.451 74.185 459.237 167.101C450.828 199.385 410.005 206.98 387.331 180.481Z" stroke="url(#paint22_linear_46_1505)" stroke-opacity="0.3" stroke-width="3" stroke-miterlimit="10"/>
</g>
<defs>
<linearGradient id="paint0_linear_46_1505" x1="212.902" y1="-265.24" x2="518.36" y2="137.64" gradientUnits="userSpaceOnUse">
<stop stop-color="#E8E6EE"/>
<stop offset="0.697917" stop-color="#120052"/>
</linearGradient>
<linearGradient id="paint1_linear_46_1505" x1="209.395" y1="-269.868" x2="521.875" y2="142.272" gradientUnits="userSpaceOnUse">
<stop stop-color="#E8E6EE"/>
<stop offset="0.697917" stop-color="#120052"/>
</linearGradient>
<linearGradient id="paint2_linear_46_1505" x1="206.577" y1="-273.595" x2="524.707" y2="145.999" gradientUnits="userSpaceOnUse">
<stop stop-color="#E8E6EE"/>
<stop offset="0.697917" stop-color="#120052"/>
</linearGradient>
<linearGradient id="paint3_linear_46_1505" x1="204.453" y1="-276.393" x2="526.819" y2="148.786" gradientUnits="userSpaceOnUse">
<stop stop-color="#E8E6EE"/>
<stop offset="0.697917" stop-color="#120052"/>
</linearGradient>
<linearGradient id="paint4_linear_46_1505" x1="203.046" y1="-278.244" x2="528.227" y2="150.647" gradientUnits="userSpaceOnUse">
<stop stop-color="#E8E6EE"/>
<stop offset="0.697917" stop-color="#120052"/>
</linearGradient>
<linearGradient id="paint5_linear_46_1505" x1="202.358" y1="-279.146" x2="528.904" y2="151.547" gradientUnits="userSpaceOnUse">
<stop stop-color="#E8E6EE"/>
<stop offset="0.697917" stop-color="#120052"/>
</linearGradient>
<linearGradient id="paint6_linear_46_1505" x1="202.398" y1="-279.109" x2="528.884" y2="151.505" gradientUnits="userSpaceOnUse">
<stop stop-color="#E8E6EE"/>
<stop offset="0.697917" stop-color="#120052"/>
</linearGradient>
<linearGradient id="paint7_linear_46_1505" x1="203.153" y1="-278.106" x2="528.122" y2="150.506" gradientUnits="userSpaceOnUse">
<stop stop-color="#E8E6EE"/>
<stop offset="0.697917" stop-color="#120052"/>
</linearGradient>
<linearGradient id="paint8_linear_46_1505" x1="204.631" y1="-276.148" x2="526.641" y2="148.561" gradientUnits="userSpaceOnUse">
<stop stop-color="#E8E6EE"/>
<stop offset="0.697917" stop-color="#120052"/>
</linearGradient>
<linearGradient id="paint9_linear_46_1505" x1="206.82" y1="-273.265" x2="524.456" y2="145.676" gradientUnits="userSpaceOnUse">
<stop stop-color="#E8E6EE"/>
<stop offset="0.697917" stop-color="#120052"/>
</linearGradient>
<linearGradient id="paint10_linear_46_1505" x1="209.709" y1="-269.457" x2="521.564" y2="141.86" gradientUnits="userSpaceOnUse">
<stop stop-color="#E8E6EE"/>
<stop offset="0.697917" stop-color="#120052"/>
</linearGradient>
<linearGradient id="paint11_linear_46_1505" x1="220.956" y1="-276.965" x2="525.658" y2="124.917" gradientUnits="userSpaceOnUse">
<stop stop-color="#E8E6EE"/>
<stop offset="0.697917" stop-color="#120052"/>
</linearGradient>
<linearGradient id="paint12_linear_46_1505" x1="217.531" y1="-259.143" x2="513.74" y2="131.536" gradientUnits="userSpaceOnUse">
<stop stop-color="#E8E6EE"/>
<stop offset="0.697917" stop-color="#120052"/>
</linearGradient>
<linearGradient id="paint13_linear_46_1505" x1="222.427" y1="-252.683" x2="508.846" y2="125.085" gradientUnits="userSpaceOnUse">
<stop stop-color="#E8E6EE"/>
<stop offset="0.697917" stop-color="#120052"/>
</linearGradient>
<linearGradient id="paint14_linear_46_1505" x1="227.942" y1="-245.408" x2="503.331" y2="117.811" gradientUnits="userSpaceOnUse">
<stop stop-color="#E8E6EE"/>
<stop offset="0.697917" stop-color="#120052"/>
</linearGradient>
<linearGradient id="paint15_linear_46_1505" x1="234.056" y1="-237.354" x2="497.226" y2="109.749" gradientUnits="userSpaceOnUse">
<stop stop-color="#E8E6EE"/>
<stop offset="0.697917" stop-color="#120052"/>
</linearGradient>
<linearGradient id="paint16_linear_46_1505" x1="240.726" y1="-228.553" x2="490.558" y2="100.958" gradientUnits="userSpaceOnUse">
<stop stop-color="#E8E6EE"/>
<stop offset="0.697917" stop-color="#120052"/>
</linearGradient>
<linearGradient id="paint17_linear_46_1505" x1="236.968" y1="-233.51" x2="494.314" y2="105.912" gradientUnits="userSpaceOnUse">
<stop stop-color="#E8E6EE"/>
<stop offset="0.697917" stop-color="#120052"/>
</linearGradient>
<linearGradient id="paint18_linear_46_1505" x1="230.599" y1="-241.897" x2="500.67" y2="114.309" gradientUnits="userSpaceOnUse">
<stop stop-color="#E8E6EE"/>
<stop offset="0.697917" stop-color="#120052"/>
</linearGradient>
<linearGradient id="paint19_linear_46_1505" x1="224.818" y1="-249.535" x2="506.463" y2="121.936" gradientUnits="userSpaceOnUse">
<stop stop-color="#E8E6EE"/>
<stop offset="0.697917" stop-color="#120052"/>
</linearGradient>
<linearGradient id="paint20_linear_46_1505" x1="219.64" y1="-256.365" x2="511.637" y2="128.76" gradientUnits="userSpaceOnUse">
<stop stop-color="#E8E6EE"/>
<stop offset="0.697917" stop-color="#120052"/>
</linearGradient>
<linearGradient id="paint21_linear_46_1505" x1="219.64" y1="-256.365" x2="511.637" y2="128.76" gradientUnits="userSpaceOnUse">
<stop stop-color="#E8E6EE"/>
<stop offset="0.697917" stop-color="#120052"/>
</linearGradient>
<linearGradient id="paint22_linear_46_1505" x1="215.099" y1="-262.347" x2="516.173" y2="134.75" gradientUnits="userSpaceOnUse">
<stop stop-color="#E8E6EE"/>
<stop offset="0.697917" stop-color="#120052"/>
</linearGradient>
<clipPath id="clip0_46_1505">
<rect width="506" height="543" fill="white" transform="translate(0 -127.291) rotate(-37.169)"/>
</clipPath>
</defs>
</svg>
